<?xml version="1.0" encoding="iso-8859-1"?>
<!-- Generator: Adobe Illustrator 19.0.0, SVG Export Plug-In . SVG Version: 6.00 Build 0)  -->
<svg version="1.1" id="Layer_1" xmlns="http://www.w3.org/2000/svg" xmlns:xlink="http://www.w3.org/1999/xlink" x="0px" y="0px"
	 viewBox="0 0 226.452 226.452" style="enable-background:new 0 0 226.452 226.452;" xml:space="preserve">
<g>
	<g>
		<g>
			<path d="M163.12,115.285l-27.249-54.498V12.352h-45.29v48.435l-27.249,54.498H32.938v24.704h32.938v86.463h8.235v-86.463h78.229
				v86.463h8.235v-86.463h32.938v-24.704H163.12z M98.815,62.733V20.587h28.821v42.146l26.276,52.552H72.54L98.815,62.733z
				 M185.279,131.754H41.173v-8.235h18.041h108.023h18.042V131.754z"/>
			<path d="M113.399,193.513c10.629,0,19.276-8.649,19.276-19.276c0-9.558-13.598-24.024-16.324-26.827
				c-1.548-1.592-4.354-1.592-5.903,0c-2.726,2.803-16.324,17.269-16.324,26.827C94.123,184.865,102.771,193.513,113.399,193.513z
				 M113.399,156.353c5.285,6.011,11.041,14.017,11.041,17.885c0,6.087-4.954,11.041-11.041,11.041
				c-6.087,0-11.041-4.954-11.041-11.041C102.359,170.37,108.113,162.364,113.399,156.353z"/>
			<path d="M131.755,197.631H94.698c-2.274,0-4.117,1.842-4.117,4.117v10.293c0,7.945,6.477,14.411,14.439,14.411h16.413
				c7.962,0,14.439-6.465,14.439-14.411v-10.293C135.872,199.472,134.027,197.631,131.755,197.631z M127.638,212.041h-0.001
				c0,3.405-2.782,6.176-6.204,6.176h-16.412c-3.422,0-6.204-2.771-6.204-6.176v-6.176h28.821V212.041z"/>
			<rect x="94.698" width="37.056" height="8.235"/>
		</g>
	</g>
</g>
<g>
</g>
<g>
</g>
<g>
</g>
<g>
</g>
<g>
</g>
<g>
</g>
<g>
</g>
<g>
</g>
<g>
</g>
<g>
</g>
<g>
</g>
<g>
</g>
<g>
</g>
<g>
</g>
<g>
</g>
</svg>
